<mxfile host="app.diagrams.net" modified="2021-03-11T06:45:25.600Z" agent="5.0 (Macintosh; Intel Mac OS X 10_14_5) AppleWebKit/537.36 (KHTML, like Gecko) Chrome/89.0.4389.82 Safari/537.36" etag="bvapUrOBNlkhDbtrsxuA" version="14.4.7" type="github">
  <diagram id="6I0OCvxSQrVGMHxT2VVA" name="Page-1">
    <mxGraphModel dx="3061" dy="1857" grid="1" gridSize="10" guides="1" tooltips="1" connect="1" arrows="1" fold="1" page="1" pageScale="1" pageWidth="1169" pageHeight="827" math="0" shadow="0">
      <root>
        <mxCell id="0" />
        <mxCell id="1" parent="0" />
        <mxCell id="-Ya4gVF4ckm8G-3gl8Tq-86" value="" style="rounded=1;whiteSpace=wrap;html=1;shadow=0;glass=0;labelBackgroundColor=#ffffff;sketch=0;strokeWidth=5;fillColor=none;gradientColor=none;fontSize=20;fontColor=#B5739D;" vertex="1" parent="1">
          <mxGeometry x="-40" y="-30" width="1230" height="760" as="geometry" />
        </mxCell>
        <mxCell id="-Ya4gVF4ckm8G-3gl8Tq-85" value="" style="rounded=0;whiteSpace=wrap;html=1;shadow=0;glass=0;labelBackgroundColor=#ffffff;sketch=0;strokeColor=#00CCCC;strokeWidth=4;fillColor=none;gradientColor=none;fontSize=20;fontColor=#67AB9F;dashed=1;" vertex="1" parent="1">
          <mxGeometry x="30" y="20" width="800" height="660" as="geometry" />
        </mxCell>
        <mxCell id="-Ya4gVF4ckm8G-3gl8Tq-6" value="&lt;font style=&quot;font-size: 30px&quot;&gt;Ozone Manager&lt;/font&gt;" style="rounded=1;whiteSpace=wrap;html=1;fillColor=#f8cecc;strokeColor=#b85450;fontSize=30;" vertex="1" parent="1">
          <mxGeometry x="840" y="40" width="280" height="120" as="geometry" />
        </mxCell>
        <mxCell id="-Ya4gVF4ckm8G-3gl8Tq-69" style="edgeStyle=orthogonalEdgeStyle;rounded=0;orthogonalLoop=1;jettySize=auto;html=1;exitX=0.5;exitY=0;exitDx=0;exitDy=0;entryX=0.5;entryY=1;entryDx=0;entryDy=0;fontSize=30;fillColor=#e51400;strokeColor=#B20000;strokeWidth=2;" edge="1" parent="1" source="-Ya4gVF4ckm8G-3gl8Tq-40" target="-Ya4gVF4ckm8G-3gl8Tq-55">
          <mxGeometry relative="1" as="geometry" />
        </mxCell>
        <mxCell id="-Ya4gVF4ckm8G-3gl8Tq-40" value="Ozone Cli" style="rounded=1;whiteSpace=wrap;html=1;fillColor=#dae8fc;strokeColor=#6c8ebf;shadow=0;sketch=0;glass=0;fontSize=30;" vertex="1" parent="1">
          <mxGeometry x="40" y="280" width="280" height="120" as="geometry" />
        </mxCell>
        <mxCell id="-Ya4gVF4ckm8G-3gl8Tq-55" value="&lt;font style=&quot;font-size: 30px&quot;&gt;OmClient&lt;/font&gt;" style="rounded=1;whiteSpace=wrap;html=1;fillColor=#ffff88;strokeColor=#36393d;shadow=0;sketch=0;glass=0;fontSize=30;" vertex="1" parent="1">
          <mxGeometry x="40" y="40" width="280" height="120" as="geometry" />
        </mxCell>
        <mxCell id="-Ya4gVF4ckm8G-3gl8Tq-59" value="" style="endArrow=classic;startArrow=classic;html=1;fontSize=30;exitX=1;exitY=0.5;exitDx=0;exitDy=0;entryX=0;entryY=0.5;entryDx=0;entryDy=0;fillColor=#1ba1e2;strokeColor=#006EAF;strokeWidth=2;" edge="1" parent="1" source="-Ya4gVF4ckm8G-3gl8Tq-66" target="-Ya4gVF4ckm8G-3gl8Tq-79">
          <mxGeometry width="50" height="50" relative="1" as="geometry">
            <mxPoint x="410" y="560" as="sourcePoint" />
            <mxPoint x="700" y="530" as="targetPoint" />
          </mxGeometry>
        </mxCell>
        <mxCell id="-Ya4gVF4ckm8G-3gl8Tq-62" value="&lt;font style=&quot;font-size: 20px;&quot;&gt;ContainerCommand&lt;/font&gt;" style="text;html=1;align=center;verticalAlign=middle;resizable=0;points=[];autosize=1;fontSize=20;" vertex="1" parent="1">
          <mxGeometry x="640" y="545" width="190" height="30" as="geometry" />
        </mxCell>
        <mxCell id="-Ya4gVF4ckm8G-3gl8Tq-63" value="&lt;font style=&quot;font-size: 20px;&quot;&gt;OMReq/Resp&lt;/font&gt;" style="text;html=1;align=center;verticalAlign=middle;resizable=0;points=[];autosize=1;fontSize=20;" vertex="1" parent="1">
          <mxGeometry x="665" y="60" width="140" height="30" as="geometry" />
        </mxCell>
        <mxCell id="-Ya4gVF4ckm8G-3gl8Tq-64" value="" style="endArrow=classic;startArrow=classic;html=1;fontSize=30;entryX=0;entryY=0.5;entryDx=0;entryDy=0;fillColor=#1ba1e2;strokeColor=#006EAF;strokeWidth=2;" edge="1" parent="1" source="-Ya4gVF4ckm8G-3gl8Tq-45" target="-Ya4gVF4ckm8G-3gl8Tq-6">
          <mxGeometry width="50" height="50" relative="1" as="geometry">
            <mxPoint x="450" y="310" as="sourcePoint" />
            <mxPoint x="645" y="309.5" as="targetPoint" />
          </mxGeometry>
        </mxCell>
        <mxCell id="-Ya4gVF4ckm8G-3gl8Tq-45" value="&lt;font style=&quot;font-size: 30px&quot;&gt;Protocol Buffer&lt;/font&gt;" style="shape=process;whiteSpace=wrap;html=1;backgroundOutline=1;shadow=0;glass=0;labelBackgroundColor=#ffffff;sketch=0;strokeColor=#b46504;strokeWidth=1;fillColor=#fad7ac;rounded=0;fontSize=30;" vertex="1" parent="1">
          <mxGeometry x="400" y="50" width="240" height="100" as="geometry" />
        </mxCell>
        <mxCell id="-Ya4gVF4ckm8G-3gl8Tq-65" value="" style="endArrow=classic;startArrow=classic;html=1;fontSize=30;entryX=0;entryY=0.5;entryDx=0;entryDy=0;exitX=1;exitY=0.5;exitDx=0;exitDy=0;fillColor=#1ba1e2;strokeColor=#006EAF;strokeWidth=2;" edge="1" parent="1" source="-Ya4gVF4ckm8G-3gl8Tq-55" target="-Ya4gVF4ckm8G-3gl8Tq-45">
          <mxGeometry width="50" height="50" relative="1" as="geometry">
            <mxPoint x="450" y="310" as="sourcePoint" />
            <mxPoint x="650" y="310" as="targetPoint" />
          </mxGeometry>
        </mxCell>
        <mxCell id="-Ya4gVF4ckm8G-3gl8Tq-66" value="Protocol Buffer" style="shape=process;whiteSpace=wrap;html=1;backgroundOutline=1;shadow=0;glass=0;labelBackgroundColor=#ffffff;sketch=0;strokeColor=#b46504;strokeWidth=1;fillColor=#fad7ac;rounded=0;fontSize=30;" vertex="1" parent="1">
          <mxGeometry x="400" y="520" width="240" height="120" as="geometry" />
        </mxCell>
        <mxCell id="-Ya4gVF4ckm8G-3gl8Tq-67" value="" style="endArrow=classic;startArrow=classic;html=1;fontSize=30;exitX=1;exitY=0.5;exitDx=0;exitDy=0;fillColor=#1ba1e2;strokeColor=#006EAF;strokeWidth=2;" edge="1" parent="1" source="-Ya4gVF4ckm8G-3gl8Tq-73" target="-Ya4gVF4ckm8G-3gl8Tq-66">
          <mxGeometry width="50" height="50" relative="1" as="geometry">
            <mxPoint x="340" y="515" as="sourcePoint" />
            <mxPoint x="649" y="515" as="targetPoint" />
          </mxGeometry>
        </mxCell>
        <mxCell id="-Ya4gVF4ckm8G-3gl8Tq-68" value="" style="endArrow=classic;html=1;fontSize=30;exitX=0.5;exitY=1;exitDx=0;exitDy=0;entryX=0.5;entryY=0;entryDx=0;entryDy=0;fillColor=#e51400;strokeColor=#B20000;strokeWidth=2;" edge="1" parent="1" source="-Ya4gVF4ckm8G-3gl8Tq-40" target="-Ya4gVF4ckm8G-3gl8Tq-73">
          <mxGeometry width="50" height="50" relative="1" as="geometry">
            <mxPoint x="410" y="570" as="sourcePoint" />
            <mxPoint x="242.82608695652152" y="485" as="targetPoint" />
          </mxGeometry>
        </mxCell>
        <mxCell id="-Ya4gVF4ckm8G-3gl8Tq-70" value="&lt;font style=&quot;font-size: 50px;&quot;&gt;&lt;b style=&quot;font-size: 50px;&quot;&gt;Go Ozone Client&lt;/b&gt;&lt;/font&gt;" style="text;html=1;align=center;verticalAlign=middle;resizable=0;points=[];autosize=1;fontSize=50;fontColor=#B5739D;" vertex="1" parent="1">
          <mxGeometry x="384.5" y="305" width="400" height="70" as="geometry" />
        </mxCell>
        <mxCell id="-Ya4gVF4ckm8G-3gl8Tq-72" value="&lt;font style=&quot;font-size: 30px;&quot;&gt;Ozone Manager&lt;/font&gt;" style="rounded=1;whiteSpace=wrap;html=1;fillColor=#d5e8d4;strokeColor=#82b366;fontSize=30;" vertex="1" parent="1">
          <mxGeometry x="840" y="280" width="280" height="120" as="geometry" />
        </mxCell>
        <mxCell id="-Ya4gVF4ckm8G-3gl8Tq-73" value="&lt;font style=&quot;font-size: 30px&quot;&gt;RaftClient&lt;/font&gt;" style="rounded=1;whiteSpace=wrap;html=1;fillColor=#ffff88;strokeColor=#36393d;shadow=0;sketch=0;glass=0;fontSize=30;" vertex="1" parent="1">
          <mxGeometry x="40" y="520" width="280" height="120" as="geometry" />
        </mxCell>
        <mxCell id="-Ya4gVF4ckm8G-3gl8Tq-79" value="&lt;font style=&quot;font-size: 30px;&quot;&gt;Ozone Manager&lt;/font&gt;" style="rounded=1;whiteSpace=wrap;html=1;fillColor=#ffe6cc;strokeColor=#d79b00;fontSize=30;" vertex="1" parent="1">
          <mxGeometry x="840" y="520" width="280" height="120" as="geometry" />
        </mxCell>
        <mxCell id="-Ya4gVF4ckm8G-3gl8Tq-81" value="&lt;font style=&quot;font-size: 30px;&quot;&gt;Ozone Manager&lt;/font&gt;" style="rounded=1;whiteSpace=wrap;html=1;fillColor=#ffe6cc;strokeColor=#d79b00;fontSize=30;" vertex="1" parent="1">
          <mxGeometry x="850" y="530" width="280" height="120" as="geometry" />
        </mxCell>
        <mxCell id="-Ya4gVF4ckm8G-3gl8Tq-82" value="&lt;font style=&quot;font-size: 30px;&quot;&gt;DataNode&lt;/font&gt;" style="rounded=1;whiteSpace=wrap;html=1;fillColor=#ffe6cc;strokeColor=#d79b00;fontSize=30;" vertex="1" parent="1">
          <mxGeometry x="860" y="540" width="280" height="120" as="geometry" />
        </mxCell>
        <mxCell id="-Ya4gVF4ckm8G-3gl8Tq-83" value="" style="endArrow=classic;html=1;fontSize=30;fontColor=#990000;entryX=1;entryY=0.5;entryDx=0;entryDy=0;exitX=1;exitY=0.5;exitDx=0;exitDy=0;rounded=0;edgeStyle=orthogonalEdgeStyle;fillColor=#d80073;strokeColor=#A50040;strokeWidth=2;" edge="1" parent="1" source="-Ya4gVF4ckm8G-3gl8Tq-82" target="-Ya4gVF4ckm8G-3gl8Tq-72">
          <mxGeometry width="50" height="50" relative="1" as="geometry">
            <mxPoint x="920" y="430" as="sourcePoint" />
            <mxPoint x="970" y="380" as="targetPoint" />
          </mxGeometry>
        </mxCell>
        <mxCell id="-Ya4gVF4ckm8G-3gl8Tq-84" value="" style="endArrow=classic;html=1;fontSize=20;fontColor=#67AB9F;entryX=0.5;entryY=0;entryDx=0;entryDy=0;exitX=0.5;exitY=1;exitDx=0;exitDy=0;fillColor=#1ba1e2;strokeColor=#006EAF;strokeWidth=2;" edge="1" parent="1" source="-Ya4gVF4ckm8G-3gl8Tq-6" target="-Ya4gVF4ckm8G-3gl8Tq-72">
          <mxGeometry width="50" height="50" relative="1" as="geometry">
            <mxPoint x="700" y="470" as="sourcePoint" />
            <mxPoint x="750" y="420" as="targetPoint" />
          </mxGeometry>
        </mxCell>
      </root>
    </mxGraphModel>
  </diagram>
</mxfile>
